<svg width="150" height="50" viewBox="0 0 150 50" fill="none" xmlns="http://www.w3.org/2000/svg">
<g opacity="0.5">
<rect width="150" height="50" fill="#161C31"/>
<path d="M21.0502 29.8507V22.5426C21.0502 22.3641 20.9786 22.193 20.8511 22.0668C20.7237 21.9406 20.5508 21.8697 20.3705 21.8697H19.0485C18.9232 21.8669 18.8009 21.8311 18.6942 21.7659C18.5875 21.7008 18.5003 21.6086 18.4416 21.499C18.2293 21.1265 17.8983 20.8341 17.5004 20.6676C17.1025 20.501 16.66 20.4696 16.2422 20.5783C15.8243 20.687 15.4546 20.9296 15.1908 21.2683C14.9269 21.607 14.7838 22.0226 14.7838 22.4503C14.7838 22.878 14.9269 23.2937 15.1908 23.6324C15.4546 23.9711 15.8243 24.2137 16.2422 24.3224C16.66 24.431 17.1025 24.3997 17.5004 24.2331C17.8983 24.0665 18.2293 23.7742 18.4416 23.4017C18.5003 23.2918 18.5875 23.1994 18.6943 23.134C18.8011 23.0686 18.9235 23.0326 19.0491 23.0298H19.1987C19.3787 23.0309 19.5509 23.1025 19.6775 23.2291C19.8042 23.3557 19.8749 23.5268 19.8743 23.705V29.8507C19.8714 29.9747 19.8352 30.0956 19.7694 30.2011C19.7035 30.3066 19.6105 30.3928 19.4998 30.4509C19.1236 30.6611 18.8283 30.9888 18.66 31.3827C18.4918 31.7767 18.4601 32.2147 18.5698 32.6284C18.6796 33.042 18.9247 33.408 19.2668 33.6692C19.6089 33.9304 20.0288 34.0721 20.4608 34.0721C20.8928 34.0721 21.3127 33.9304 21.6548 33.6692C21.9969 33.408 22.242 33.042 22.3517 32.6284C22.4615 32.2147 22.4298 31.7767 22.2616 31.3827C22.0933 30.9888 21.798 30.6611 21.4218 30.4509C21.3108 30.3928 21.2175 30.3064 21.1514 30.2007C21.0854 30.095 21.049 29.9738 21.0461 29.8495L21.0502 29.8507ZM16.7468 23.2247C16.5921 23.2247 16.4409 23.1793 16.3123 23.0942C16.1837 23.0091 16.0834 22.8881 16.0242 22.7467C15.965 22.6052 15.9495 22.4495 15.9797 22.2993C16.0099 22.1491 16.0844 22.0111 16.1938 21.9028C16.3031 21.7945 16.4425 21.7207 16.5942 21.6909C16.746 21.661 16.9032 21.6763 17.0461 21.7349C17.1891 21.7935 17.3112 21.8928 17.3972 22.0201C17.4831 22.1475 17.529 22.2972 17.529 22.4503C17.5288 22.6557 17.4464 22.8525 17.2997 22.9977C17.1531 23.1429 16.9542 23.2245 16.7468 23.2247ZM20.4608 32.9008C20.3061 32.9008 20.1549 32.8554 20.0262 32.7703C19.8976 32.6852 19.7974 32.5643 19.7382 32.4228C19.679 32.2813 19.6635 32.1256 19.6937 31.9754C19.7238 31.8252 19.7983 31.6872 19.9077 31.5789C20.0171 31.4706 20.1565 31.3969 20.3082 31.367C20.4599 31.3371 20.6172 31.3524 20.7601 31.411C20.903 31.4696 21.0252 31.5689 21.1111 31.6962C21.1971 31.8236 21.243 31.9733 21.243 32.1264C21.2428 32.3318 21.1603 32.5286 21.0137 32.6738C20.867 32.819 20.6682 32.9006 20.4608 32.9008ZM12.0562 16.6448C11.7119 16.6427 11.3732 16.7307 11.0744 16.8998C10.7755 17.069 10.5271 17.3133 10.3543 17.608C10.1815 17.9028 10.0904 18.2375 10.0902 18.5783C10.0901 18.9191 10.1809 19.2539 10.3534 19.5488C10.526 19.8437 10.7742 20.0882 11.0729 20.2577C11.3716 20.4271 11.7102 20.5153 12.0545 20.5135C12.3987 20.5117 12.7364 20.4199 13.0333 20.2474C13.3301 20.0749 13.5757 19.8278 13.7451 19.5311C13.8038 19.4214 13.8911 19.3291 13.9979 19.2639C14.1047 19.1987 14.2271 19.163 14.3526 19.1604H22.7135C22.8938 19.1604 23.0667 19.2313 23.1941 19.3575C23.3216 19.4836 23.3932 19.6548 23.3932 19.8332V38.8995C23.7043 38.8995 24.0026 38.7771 24.2226 38.5594C24.4426 38.3416 24.5661 38.0462 24.5661 37.7383V18.672C24.5664 18.5834 24.5489 18.4957 24.5149 18.4138C24.4808 18.3319 24.4307 18.2574 24.3675 18.1947C24.3043 18.132 24.2293 18.0822 24.1466 18.0483C24.064 18.0143 23.9754 17.9969 23.8859 17.9969H14.3526C14.227 17.9942 14.1044 17.9584 13.9975 17.8931C13.8906 17.8278 13.8033 17.7355 13.7446 17.6255C13.576 17.3287 13.3308 17.0814 13.034 16.9092C12.7373 16.737 12.3996 16.6459 12.0556 16.6454L12.0562 16.6448ZM12.0556 19.3553C11.901 19.3552 11.7498 19.3097 11.6213 19.2246C11.4928 19.1395 11.3926 19.0186 11.3335 18.8771C11.2743 18.7357 11.2589 18.5801 11.289 18.4299C11.3192 18.2798 11.3936 18.1419 11.5029 18.0336C11.6122 17.9253 11.7514 17.8515 11.9031 17.8216C12.0547 17.7916 12.2119 17.8068 12.3548 17.8652C12.4977 17.9237 12.6199 18.0228 12.706 18.1499C12.7921 18.2771 12.8381 18.4267 12.8383 18.5798C12.838 18.7849 12.7556 18.9816 12.6091 19.1268C12.4626 19.2719 12.264 19.3537 12.0568 19.3541L12.0556 19.3553ZM35.1122 20.5511C34.7099 20.472 34.2926 20.5211 33.9202 20.6914C33.5478 20.8617 33.2395 21.1444 33.0395 21.499C32.9807 21.6087 32.8934 21.7008 32.7866 21.766C32.6798 21.8312 32.5574 21.867 32.432 21.8697H31.11C30.9298 21.8699 30.757 21.9408 30.6296 22.067C30.5021 22.1931 30.4305 22.3642 30.4303 22.5426V29.8507C30.4274 29.9746 30.3911 30.0956 30.3253 30.2011C30.2595 30.3066 30.1665 30.3928 30.0558 30.4509C29.6798 30.6611 29.3846 30.9887 29.2165 31.3825C29.0483 31.7763 29.0167 32.2142 29.1265 32.6277C29.2362 33.0412 29.4812 33.4071 29.8232 33.6682C30.1652 33.9293 30.5849 34.0709 31.0168 34.0709C31.4487 34.0709 31.8684 33.9293 32.2104 33.6682C32.5524 33.4071 32.7974 33.0412 32.9072 32.6277C33.0169 32.2142 32.9853 31.7763 32.8171 31.3825C32.649 30.9887 32.3538 30.6611 31.9778 30.4509C31.8667 30.3929 31.7733 30.3066 31.7073 30.2008C31.6412 30.0951 31.6049 29.9738 31.6021 29.8495V23.705C31.6021 23.6166 31.6197 23.5291 31.6539 23.4475C31.688 23.3658 31.7381 23.2917 31.8012 23.2292C31.8643 23.1667 31.9392 23.1171 32.0217 23.0833C32.1041 23.0495 32.1925 23.0321 32.2818 23.0321H32.4309C32.5565 23.035 32.679 23.0709 32.7859 23.1363C32.8928 23.2017 32.9801 23.2941 33.0389 23.404C33.2008 23.685 33.4314 23.9213 33.7096 24.0912C33.9877 24.261 34.3045 24.359 34.6309 24.376C34.9572 24.3931 35.2827 24.3287 35.5774 24.1888C35.8721 24.0489 36.1265 23.838 36.3174 23.5754C36.5083 23.3127 36.6295 23.0068 36.6698 22.6858C36.7102 22.3647 36.6685 22.0387 36.5485 21.7378C36.4284 21.4369 36.234 21.1706 35.9829 20.9635C35.7319 20.7563 35.4323 20.6149 35.1117 20.5522L35.1122 20.5511ZM31.0168 32.9002C30.8621 32.9003 30.7108 32.855 30.5821 32.77C30.4534 32.685 30.3531 32.5641 30.2938 32.4226C30.2345 32.2811 30.2189 32.1254 30.249 31.9752C30.2791 31.8249 30.3536 31.6869 30.4629 31.5785C30.5723 31.4702 30.7117 31.3964 30.8634 31.3664C31.0152 31.3365 31.1725 31.3518 31.3154 31.4104C31.4584 31.469 31.5806 31.5682 31.6665 31.6956C31.7525 31.823 31.7984 31.9727 31.7984 32.1259C31.7981 32.331 31.7157 32.5277 31.5692 32.6729C31.4227 32.818 31.2241 32.8997 31.0168 32.9002ZM34.7308 23.2247C34.5761 23.2248 34.4248 23.1795 34.2961 23.0945C34.1674 23.0094 34.067 22.8885 34.0077 22.7471C33.9484 22.6056 33.9329 22.4499 33.963 22.2996C33.9931 22.1494 34.0675 22.0113 34.1769 21.903C34.2863 21.7946 34.4256 21.7208 34.5774 21.6909C34.7291 21.661 34.8864 21.6763 35.0294 21.7349C35.1723 21.7935 35.2945 21.8927 35.3805 22.0201C35.4665 22.1474 35.5124 22.2972 35.5124 22.4503C35.5122 22.6556 35.4298 22.8523 35.2833 22.9975C35.1368 23.1427 34.9381 23.2244 34.7308 23.2247ZM39.8035 16.6811C39.4011 16.6017 38.9837 16.6507 38.6112 16.8209C38.2386 16.9911 37.9302 17.2738 37.7301 17.6284C37.6714 17.7376 37.5843 17.8293 37.4778 17.8941C37.3714 17.9589 37.2494 17.9943 37.1244 17.9969H27.5917C27.4115 17.997 27.2387 18.0679 27.1113 18.1941C26.9839 18.3203 26.9122 18.4913 26.912 18.6697V37.7383C26.912 38.0462 27.0356 38.3416 27.2556 38.5594C27.4756 38.7771 27.7739 38.8995 28.085 38.8995V19.8338C28.085 19.6554 28.1566 19.4842 28.2841 19.358C28.4115 19.2319 28.5844 19.161 28.7647 19.161H37.1244C37.25 19.1638 37.3724 19.1998 37.4792 19.2652C37.586 19.3305 37.6732 19.4229 37.7319 19.5329C37.8938 19.814 38.1244 20.0504 38.4026 20.2203C38.6808 20.3902 38.9977 20.4881 39.3241 20.5052C39.6506 20.5222 39.9761 20.4578 40.2708 20.3178C40.5655 20.1778 40.82 19.9668 41.0108 19.7041C41.2017 19.4413 41.3228 19.1353 41.3631 18.8142C41.4033 18.493 41.3614 18.167 41.2412 17.8661C41.121 17.5651 40.9264 17.2989 40.6752 17.0919C40.424 16.8848 40.1242 16.7436 39.8035 16.6811ZM39.422 19.3541C39.2673 19.3541 39.1161 19.3087 38.9875 19.2236C38.8588 19.1385 38.7586 19.0176 38.6994 18.8761C38.6402 18.7346 38.6247 18.5789 38.6549 18.4287C38.6851 18.2785 38.7595 18.1405 38.8689 18.0322C38.9783 17.9239 39.1177 17.8502 39.2694 17.8203C39.4211 17.7904 39.5784 17.8058 39.7213 17.8644C39.8643 17.923 39.9864 18.0222 40.0724 18.1496C40.1583 18.2769 40.2042 18.4266 40.2042 18.5798C40.204 18.7851 40.1216 18.982 39.9749 19.1271C39.8283 19.2723 39.6294 19.354 39.422 19.3541ZM20.1148 15.841C20.4498 15.9007 20.7947 15.8725 21.1151 15.759C21.4356 15.6456 21.7204 15.4511 21.9413 15.1947C22.0631 15.0469 22.216 14.927 22.3892 14.8434C22.5625 14.7597 22.752 14.7144 22.9447 14.7104H28.9237C29.1164 14.7144 29.306 14.7599 29.4792 14.8436C29.6525 14.9274 29.8053 15.0473 29.9271 15.1953C30.1964 15.5052 30.5581 15.7226 30.96 15.8163C31.362 15.91 31.7836 15.8751 32.1643 15.7167C32.545 15.5582 32.8651 15.2844 33.0787 14.9345C33.2923 14.5846 33.3884 14.1767 33.3532 13.7694C33.3179 13.3621 33.1531 12.9763 32.8825 12.6675C32.6119 12.3587 32.2493 12.1428 31.847 12.0508C31.4446 11.9588 31.0231 11.9954 30.6431 12.1555C30.2631 12.3155 29.9441 12.5907 29.732 12.9414C29.6193 13.1269 29.46 13.2803 29.2697 13.3868C29.0794 13.4933 28.8645 13.5492 28.6459 13.5491H23.2237C23.0051 13.5493 22.7901 13.4934 22.5998 13.3869C22.4094 13.2804 22.2502 13.1269 22.1375 12.9414C21.9693 12.6637 21.7335 12.4321 21.4515 12.268C21.1695 12.1038 20.8504 12.0124 20.5234 12.002C20.1965 11.9916 19.8721 12.0625 19.5801 12.2084C19.288 12.3542 19.0376 12.5703 18.8517 12.8368C18.6658 13.1033 18.5505 13.4117 18.5162 13.7338C18.482 14.0558 18.5299 14.3812 18.6555 14.6802C18.7812 14.9792 18.9807 15.2422 19.2356 15.4451C19.4906 15.648 19.7929 15.7843 20.1148 15.8416V15.841ZM31.4076 13.1623C31.5623 13.1621 31.7136 13.2075 31.8423 13.2925C31.971 13.3775 32.0713 13.4984 32.1306 13.6399C32.1899 13.7814 32.2055 13.9371 32.1754 14.0873C32.1453 14.2376 32.0708 14.3756 31.9615 14.4839C31.8521 14.5923 31.7127 14.6661 31.561 14.696C31.4092 14.7259 31.2519 14.7106 31.109 14.6521C30.966 14.5935 30.8438 14.4942 30.7579 14.3669C30.6719 14.2395 30.626 14.0898 30.626 13.9366C30.6262 13.7314 30.7085 13.5346 30.8551 13.3894C31.0016 13.2443 31.2003 13.1626 31.4076 13.1623ZM20.4585 13.1623C20.6132 13.1621 20.7645 13.2075 20.8932 13.2925C21.0219 13.3775 21.1222 13.4984 21.1815 13.6399C21.2408 13.7814 21.2564 13.9371 21.2263 14.0873C21.1961 14.2376 21.1217 14.3756 21.0123 14.4839C20.903 14.5923 20.7636 14.6661 20.6119 14.696C20.4601 14.7259 20.3028 14.7106 20.1599 14.6521C20.0169 14.5935 19.8947 14.4942 19.8087 14.3669C19.7228 14.2395 19.6769 14.0898 19.6769 13.9366C19.677 13.7314 19.7594 13.5346 19.9059 13.3894C20.0525 13.2443 20.2512 13.1626 20.4585 13.1623Z" fill="#DDDDDD"/>
<path d="M57.8381 21.3645H54.1521V20.0049H63.0879V21.3645H59.35V32.2249H57.8358L57.8381 21.3645Z" fill="#DDDDDD"/>
<path d="M95.5125 20.0049H97.0267L101.721 32.2249H100.138L99.0261 29.2474H93.5154L92.4199 32.2249H90.8375L95.5125 20.0049ZM98.5555 27.9392L96.2777 21.8107H96.2428L94 27.938L98.5555 27.9392Z" fill="#DDDDDD"/>
<path d="M110.36 26.1508C110.36 22.6914 112.551 19.8857 116.497 19.8857C117.427 19.8897 118.343 20.1025 119.177 20.508C120.011 20.9135 120.741 21.5011 121.313 22.2266L120.183 23.1561C119.755 22.5869 119.199 22.1242 118.56 21.8045C117.92 21.4849 117.214 21.3171 116.497 21.3145C113.698 21.3145 111.942 23.3452 111.942 26.1508C111.942 29.077 113.907 30.9007 116.515 30.9007C117.232 30.9 117.939 30.7331 118.579 30.4133C119.219 30.0935 119.774 29.6297 120.2 29.0591L121.331 30.0064C120.764 30.7351 120.034 31.3229 119.198 31.7233C118.362 32.1236 117.444 32.3255 116.515 32.3127C113.177 32.3127 110.36 30.1436 110.36 26.1508Z" fill="#DDDDDD"/>
<path d="M132.822 26.821V30.8634H139.237V32.2229H131.31V20.0059H138.872V21.3654H132.822V25.4591" fill="#DDDDDD"/>
<path d="M137.78 25.4492H134.352V26.8001H137.78V25.4492Z" fill="#DDDDDD"/>
<path d="M78.3357 27.4233C80.2827 27.0272 81.4125 25.84 81.4125 23.7909C81.4125 21.6218 80.1784 20.0039 77.327 20.0039H72.9462V21.3635H77.1185C78.822 21.3635 79.8476 22.1897 79.8476 23.7563C79.8476 25.1677 78.9612 26.1998 76.9094 26.1998H72.9462V32.225H74.4604V27.5605H76.6683L79.9367 32.2245H81.7422L78.3357 27.4233Z" fill="#DDDDDD"/>
</g>
</svg>
