<svg width="84" height="86" viewBox="0 0 84 86" fill="none" xmlns="http://www.w3.org/2000/svg">
<path d="M0 20C0 8.95432 8.95431 0 20 0H64C75.0457 0 84 8.95431 84 20V65.4727C84 76.5184 75.0457 85.4727 64 85.4727H20C8.9543 85.4727 0 76.5184 0 65.4727V20Z" fill="#504FF2"/>
<path d="M32.419 51.8114V36.7399C32.419 36.3719 32.2725 36.0189 32.0118 35.7587C31.751 35.4985 31.3974 35.3523 31.0287 35.3523H28.3244C28.0681 35.3466 27.8179 35.2727 27.5997 35.1383C27.3815 35.0039 27.2031 34.8138 27.0831 34.5877C26.6487 33.8196 25.9717 33.2166 25.1577 32.8731C24.3438 32.5296 23.4387 32.4648 22.584 32.689C21.7293 32.9131 20.973 33.4135 20.4334 34.1119C19.8937 34.8104 19.601 35.6676 19.601 36.5497C19.601 37.4317 19.8937 38.2889 20.4334 38.9874C20.973 39.6859 21.7293 40.1863 22.584 40.4104C23.4387 40.6345 24.3438 40.5698 25.1577 40.2262C25.9717 39.8827 26.6487 39.2798 27.0831 38.5116C27.203 38.285 27.3814 38.0944 27.5999 37.9596C27.8183 37.8248 28.0688 37.7506 28.3256 37.7447H28.6318C28.9999 37.7469 29.3521 37.8947 29.6111 38.1557C29.8702 38.4168 30.015 38.7697 30.0137 39.1371V51.8114C30.0077 52.0671 29.9336 52.3165 29.799 52.5341C29.6644 52.7517 29.4741 52.9295 29.2477 53.0493C28.4781 53.4828 27.874 54.1585 27.5298 54.971C27.1857 55.7834 27.1208 56.6867 27.3454 57.5398C27.5699 58.3929 28.0712 59.1478 28.771 59.6864C29.4708 60.2251 30.3296 60.5172 31.2134 60.5172C32.0971 60.5172 32.9559 60.2251 33.6557 59.6864C34.3555 59.1478 34.8568 58.3929 35.0814 57.5398C35.3059 56.6867 35.241 55.7834 34.8969 54.971C34.5527 54.1585 33.9486 53.4828 33.179 53.0493C32.952 52.9294 32.7612 52.7513 32.6261 52.5333C32.491 52.3153 32.4166 52.0653 32.4106 51.809L32.419 51.8114ZM23.6163 38.1466C23.2999 38.1466 22.9905 38.0529 22.7274 37.8775C22.4643 37.702 22.2593 37.4526 22.1382 37.1608C22.0171 36.869 21.9854 36.5479 22.0471 36.2381C22.1089 35.9284 22.2612 35.6438 22.485 35.4205C22.7087 35.1971 22.9938 35.0451 23.3042 34.9834C23.6145 34.9218 23.9362 34.9534 24.2286 35.0743C24.5209 35.1952 24.7708 35.3999 24.9466 35.6625C25.1224 35.9251 25.2163 36.2338 25.2163 36.5497C25.2159 36.9731 25.0473 37.3791 24.7473 37.6785C24.4473 37.9779 24.0406 38.1463 23.6163 38.1466V38.1466ZM31.2134 58.1016C30.8969 58.1016 30.5876 58.008 30.3245 57.8325C30.0614 57.657 29.8563 57.4076 29.7352 57.1158C29.6141 56.824 29.5824 56.5029 29.6442 56.1932C29.7059 55.8834 29.8583 55.5988 30.082 55.3755C30.3058 55.1522 30.5909 55.0001 30.9012 54.9385C31.2116 54.8768 31.5333 54.9085 31.8256 55.0293C32.118 55.1502 32.3679 55.3549 32.5437 55.6175C32.7195 55.8801 32.8133 56.1889 32.8133 56.5047C32.813 56.9281 32.6443 57.3341 32.3443 57.6335C32.0444 57.933 31.6376 58.1013 31.2134 58.1016V58.1016ZM14.0214 24.5769C13.3173 24.5726 12.6245 24.754 12.0131 25.1029C11.4018 25.4517 10.8937 25.9556 10.5402 26.5634C10.1867 27.1713 10.0003 27.8616 10 28.5644C9.99969 29.2673 10.1854 29.9577 10.5384 30.5659C10.8914 31.1741 11.3991 31.6784 12.0101 32.0277C12.6211 32.3771 13.3138 32.5592 14.0179 32.5555C14.7221 32.5517 15.4128 32.3624 16.0201 32.0066C16.6274 31.6509 17.1297 31.1413 17.4763 30.5294C17.5963 30.303 17.7749 30.1128 17.9933 29.9784C18.2118 29.8439 18.4622 29.7702 18.7188 29.7648H35.8214C36.1901 29.7648 36.5437 29.911 36.8044 30.1713C37.0652 30.4315 37.2116 30.7844 37.2116 31.1525V70.4727C37.848 70.4727 38.4583 70.2204 38.9082 69.7713C39.3582 69.3222 39.611 68.7131 39.611 68.0779V28.7577C39.6114 28.575 39.5758 28.394 39.5061 28.2251C39.4364 28.0562 39.3339 27.9027 39.2047 27.7733C39.0754 27.644 38.9219 27.5414 38.7528 27.4713C38.5838 27.4013 38.4025 27.3653 38.2195 27.3653H18.7188C18.4619 27.3599 18.2112 27.286 17.9925 27.1514C17.7738 27.0167 17.5952 26.8262 17.4751 26.5995C17.1303 25.9872 16.6287 25.4774 16.0217 25.1222C15.4146 24.7671 14.7239 24.5793 14.0202 24.5781L14.0214 24.5769ZM14.0202 30.1667C13.704 30.1665 13.3948 30.0727 13.1319 29.8972C12.869 29.7217 12.6642 29.4723 12.5432 29.1807C12.4222 28.889 12.3905 28.568 12.4522 28.2584C12.5139 27.9488 12.6661 27.6643 12.8897 27.441C13.1133 27.2177 13.3981 27.0656 13.7083 27.0038C14.0185 26.942 14.34 26.9733 14.6323 27.0939C14.9247 27.2144 15.1746 27.4187 15.3507 27.681C15.5267 27.9433 15.6209 28.2517 15.6214 28.5674C15.6207 28.9906 15.4521 29.3962 15.1525 29.6955C14.8528 29.9948 14.4466 30.1634 14.0226 30.1644L14.0202 30.1667ZM61.1834 32.6329C60.3604 32.4698 59.5067 32.5711 58.745 32.9223C57.9833 33.2735 57.3526 33.8565 56.9435 34.5877C56.8232 34.8139 56.6446 35.004 56.4262 35.1384C56.2078 35.2728 55.9574 35.3466 55.7009 35.3523H52.9966C52.628 35.3526 52.2746 35.4989 52.0139 35.7591C51.7532 36.0192 51.6067 36.372 51.6063 36.7399V51.8114C51.6003 52.0671 51.5261 52.3165 51.3915 52.534C51.2569 52.7515 51.0666 52.9294 50.8403 53.0493C50.0711 53.4828 49.4673 54.1584 49.1234 54.9705C48.7795 55.7827 48.7147 56.6857 48.9392 57.5385C49.1638 58.3912 49.665 59.1458 50.3645 59.6842C51.0641 60.2227 51.9226 60.5147 52.806 60.5147C53.6894 60.5147 54.5479 60.2227 55.2475 59.6842C55.947 59.1458 56.4482 58.3912 56.6728 57.5385C56.8973 56.6857 56.8326 55.7827 56.4886 54.9705C56.1447 54.1584 55.5409 53.4828 54.7717 53.0493C54.5445 52.9296 54.3535 52.7516 54.2184 52.5335C54.0833 52.3155 54.009 52.0654 54.0033 51.809V39.1371C54.0033 38.9549 54.0392 38.7744 54.1091 38.6061C54.179 38.4377 54.2814 38.2847 54.4105 38.1559C54.5396 38.027 54.6928 37.9248 54.8615 37.8551C55.0302 37.7853 55.211 37.7495 55.3936 37.7495H55.6985C55.9554 37.7554 56.2061 37.8296 56.4247 37.9644C56.6434 38.0992 56.822 38.2897 56.9423 38.5164C57.2734 39.096 57.7451 39.5833 58.3141 39.9336C58.8831 40.2839 59.5311 40.4859 60.1987 40.5211C60.8663 40.5562 61.532 40.4235 62.1348 40.135C62.7376 39.8464 63.2581 39.4114 63.6486 38.8698C64.039 38.3282 64.2869 37.6974 64.3695 37.0352C64.4521 36.3731 64.3667 35.7009 64.1212 35.0803C63.8756 34.4596 63.4779 33.9105 62.9643 33.4833C62.4508 33.0561 61.838 32.7645 61.1822 32.6352L61.1834 32.6329ZM52.806 58.1004C52.4895 58.1007 52.1801 58.0072 51.9168 57.8319C51.6535 57.6565 51.4483 57.4072 51.327 57.1154C51.2057 56.8237 51.1739 56.5025 51.2355 56.1927C51.2971 55.8828 51.4494 55.5982 51.6731 55.3747C51.8968 55.1513 52.1819 54.9991 52.4922 54.9374C52.8026 54.8756 53.1244 54.9072 53.4168 55.028C53.7092 55.1489 53.9592 55.3535 54.135 55.6162C54.3109 55.8788 54.4048 56.1876 54.4048 56.5035C54.4041 56.9266 54.2355 57.3323 53.9359 57.6316C53.6362 57.9309 53.2299 58.0995 52.806 58.1004ZM60.403 38.1466C60.0866 38.1468 59.7771 38.0534 59.5138 37.878C59.2506 37.7027 59.0453 37.4534 58.924 37.1616C58.8028 36.8698 58.7709 36.5487 58.8325 36.2389C58.8941 35.929 59.0464 35.6444 59.2701 35.4209C59.4938 35.1974 59.7789 35.0452 60.0893 34.9835C60.3997 34.9218 60.7214 34.9534 61.0138 35.0742C61.3063 35.195 61.5562 35.3997 61.7321 35.6623C61.9079 35.925 62.0018 36.2338 62.0018 36.5497C62.0015 36.9729 61.833 37.3787 61.5333 37.6781C61.2335 37.9775 60.8271 38.146 60.403 38.1466V38.1466ZM70.7794 24.6518C69.9564 24.4882 69.1025 24.5891 68.3405 24.9401C67.5785 25.2911 66.9476 25.8741 66.5383 26.6055C66.4182 26.8307 66.2401 27.0198 66.0223 27.1534C65.8045 27.2869 65.5549 27.3601 65.2994 27.3653H45.7999C45.4312 27.3656 45.0778 27.5119 44.8171 27.7721C44.5565 28.0322 44.4099 28.385 44.4096 28.7529V68.0779C44.4096 68.7131 44.6624 69.3222 45.1123 69.7713C45.5623 70.2204 46.1726 70.4727 46.8089 70.4727V31.1537C46.8089 30.7856 46.9554 30.4327 47.2161 30.1724C47.4768 29.9122 47.8305 29.766 48.1992 29.766H65.2994C65.5561 29.7719 65.8067 29.8461 66.0251 29.9809C66.2435 30.1157 66.4219 30.3063 66.5419 30.533C66.873 31.1128 67.3448 31.6002 67.9139 31.9506C68.483 32.301 69.1312 32.503 69.7989 32.5382C70.4666 32.5733 71.1325 32.4404 71.7353 32.1518C72.3382 31.8631 72.8587 31.4279 73.2491 30.886C73.6395 30.3442 73.8873 29.7132 73.9696 29.0509C74.052 28.3886 73.9663 27.7162 73.7204 27.0956C73.4745 26.475 73.0764 25.9259 72.5625 25.4989C72.0486 25.0719 71.4355 24.7806 70.7794 24.6518V24.6518ZM69.9991 30.1644C69.6827 30.1644 69.3733 30.0707 69.1102 29.8952C68.8471 29.7198 68.6421 29.4703 68.521 29.1785C68.3999 28.8867 68.3682 28.5657 68.4299 28.2559C68.4917 27.9461 68.644 27.6616 68.8678 27.4382C69.0915 27.2149 69.3766 27.0628 69.687 27.0012C69.9973 26.9396 70.319 26.9712 70.6114 27.0921C70.9037 27.2129 71.1536 27.4176 71.3294 27.6802C71.5052 27.9428 71.5991 28.2516 71.5991 28.5674C71.5987 28.9909 71.4301 29.3969 71.1301 29.6963C70.8301 29.9957 70.4234 30.164 69.9991 30.1644V30.1644ZM30.5057 22.9193C31.1908 23.0424 31.8963 22.9841 32.5518 22.7503C33.2074 22.5164 33.79 22.1151 34.2417 21.5864C34.491 21.2815 34.8037 21.0343 35.1581 20.8619C35.5125 20.6894 35.9001 20.5958 36.2943 20.5876H48.5244C48.9187 20.596 49.3064 20.6897 49.6608 20.8624C50.0152 21.0351 50.3279 21.2825 50.5771 21.5876C51.1279 22.2267 51.8676 22.6751 52.6899 22.8683C53.5121 23.0615 54.3745 22.9896 55.1532 22.6628C55.9319 22.3361 56.5868 21.7714 57.0237 21.0498C57.4607 20.3283 57.6572 19.487 57.5851 18.647C57.513 17.807 57.1759 17.0114 56.6223 16.3746C56.0687 15.7377 55.3271 15.2925 54.5041 15.1027C53.6811 14.913 52.8189 14.9886 52.0416 15.3186C51.2643 15.6486 50.6119 16.2161 50.178 16.9395C49.9474 17.3219 49.6216 17.6383 49.2323 17.8579C48.843 18.0775 48.4033 18.1929 47.9561 18.1928H36.865C36.4177 18.1931 35.978 18.0779 35.5887 17.8582C35.1993 17.6386 34.8736 17.3221 34.6432 16.9395C34.2992 16.3666 33.8166 15.8891 33.2398 15.5506C32.663 15.2122 32.0103 15.0235 31.3415 15.0021C30.6727 14.9806 30.0092 15.127 29.4118 15.4277C28.8144 15.7285 28.3021 16.1741 27.9219 16.7237C27.5417 17.2733 27.3058 17.9093 27.2357 18.5735C27.1656 19.2377 27.2636 19.9088 27.5207 20.5254C27.7777 21.142 28.1857 21.6844 28.7073 22.1028C29.2288 22.5213 29.8471 22.8024 30.5057 22.9205V22.9193ZM53.6054 17.3949C53.9219 17.3947 54.2313 17.4881 54.4946 17.6635C54.7579 17.8388 54.9631 18.0881 55.0844 18.3799C55.2057 18.6717 55.2375 18.9928 55.1759 19.3026C55.1143 19.6125 54.962 19.8972 54.7383 20.1206C54.5146 20.3441 54.2295 20.4963 53.9191 20.558C53.6088 20.6197 53.287 20.5881 52.9946 20.4673C52.7022 20.3465 52.4522 20.1418 52.2764 19.8792C52.1005 19.6165 52.0066 19.3077 52.0066 18.9918C52.0069 18.5686 52.1755 18.1628 52.4752 17.8634C52.7749 17.564 53.1814 17.3955 53.6054 17.3949V17.3949ZM31.2086 17.3949C31.5251 17.3947 31.8345 17.4881 32.0978 17.6635C32.3611 17.8388 32.5663 18.0881 32.6876 18.3799C32.8089 18.6717 32.8407 18.9928 32.7791 19.3026C32.7175 19.6125 32.5652 19.8972 32.3415 20.1206C32.1178 20.3441 31.8327 20.4963 31.5224 20.558C31.212 20.6197 30.8902 20.5881 30.5978 20.4673C30.3054 20.3465 30.0554 20.1418 29.8796 19.8792C29.7037 19.6165 29.6098 19.3077 29.6098 18.9918C29.6102 18.5686 29.7787 18.1628 30.0784 17.8634C30.3781 17.564 30.7846 17.3955 31.2086 17.3949" fill="white"/>
</svg>
