<svg width="480" height="480" viewBox="0 0 480 480" fill="none" xmlns="http://www.w3.org/2000/svg">
<g opacity="0.15">
<path d="M287 375C202.3 375 133 305.7 133 221C133 136.3 202.3 67 287 67C371.7 67 441 136.3 441 221C441 305.7 371.7 375 287 375ZM287 97.8C219.24 97.8 163.8 153.24 163.8 221C163.8 288.76 219.24 344.2 287 344.2C354.76 344.2 410.2 288.76 410.2 221C410.2 153.24 354.76 97.8 287 97.8Z" fill="url(#paint0_linear_833_3797)"/>
<path d="M287 316.481C234.126 316.481 191.52 273.361 191.52 221.001C191.52 168.641 234.126 125.521 287 125.521C339.873 125.521 382.48 168.641 382.48 221.001C382.48 273.361 339.873 316.481 287 316.481ZM287 156.321C251.066 156.321 222.32 185.581 222.32 221.001C222.32 256.421 251.066 285.681 287 285.681C322.933 285.681 351.68 256.934 351.68 221.001C351.68 185.068 322.933 156.321 287 156.321Z" fill="url(#paint1_linear_833_3797)"/>
<path d="M287 260.014C265.44 260.014 247.473 242.56 247.473 220.486C247.473 198.414 264.926 180.96 287 180.96C308.56 180.96 326.526 198.414 326.526 220.486C326.526 242.56 308.56 260.014 287 260.014ZM287 212.274C282.38 212.274 278.272 215.866 278.272 221C278.272 226.134 281.866 229.726 287 229.726C292.132 229.726 295.726 226.134 295.726 221C295.726 215.866 291.62 212.274 287 212.274Z" fill="url(#paint2_linear_833_3797)"/>
</g>
<g opacity="0.15">
<path d="M196 375C111.3 375 42 305.7 42 221C42 136.3 111.3 67 196 67C280.7 67 350 136.3 350 221C350 305.7 280.7 375 196 375ZM196 97.8C128.24 97.8 72.8 153.24 72.8 221C72.8 288.76 128.24 344.2 196 344.2C263.76 344.2 319.2 288.76 319.2 221C319.2 153.24 263.76 97.8 196 97.8Z" fill="url(#paint3_linear_833_3797)"/>
<path d="M196 316.481C143.126 316.481 100.52 273.361 100.52 221.001C100.52 168.641 143.126 125.521 196 125.521C248.873 125.521 291.48 168.641 291.48 221.001C291.48 273.361 248.873 316.481 196 316.481ZM196 156.321C160.066 156.321 131.32 185.581 131.32 221.001C131.32 256.421 160.066 285.681 196 285.681C231.933 285.681 260.68 256.934 260.68 221.001C260.68 185.068 231.933 156.321 196 156.321Z" fill="url(#paint4_linear_833_3797)"/>
<path d="M196 260.014C174.44 260.014 156.473 242.56 156.473 220.486C156.473 198.414 173.926 180.96 196 180.96C217.56 180.96 235.526 198.414 235.526 220.486C235.526 242.56 217.56 260.014 196 260.014ZM196 212.274C191.38 212.274 187.272 215.866 187.272 221C187.272 226.134 190.866 229.726 196 229.726C201.132 229.726 204.726 226.134 204.726 221C204.726 215.866 200.62 212.274 196 212.274Z" fill="url(#paint5_linear_833_3797)"/>
</g>
<g opacity="0.4">
<path d="M128.001 367.167C68.509 367.167 19.834 318.492 19.834 259C19.834 199.508 68.509 150.833 128.001 150.833C187.492 150.833 236.167 199.508 236.167 259C236.167 318.492 187.492 367.167 128.001 367.167ZM128.001 172.467C80.4073 172.467 41.4673 211.407 41.4673 259C41.4673 306.593 80.4073 345.533 128.001 345.533C175.594 345.533 214.534 306.593 214.534 259C214.534 211.407 175.594 172.467 128.001 172.467Z" fill="url(#paint6_linear_833_3797)"/>
<path d="M128.001 326.064C90.8637 326.064 60.9375 295.778 60.9375 259.001C60.9375 222.224 90.8637 191.937 128.001 191.937C165.138 191.937 195.064 222.224 195.064 259.001C195.064 295.778 165.138 326.064 128.001 326.064ZM128.001 213.571C102.762 213.571 82.5708 234.122 82.5708 259.001C82.5708 283.879 102.762 304.431 128.001 304.431C153.24 304.431 173.431 284.239 173.431 259.001C173.431 233.762 153.24 213.571 128.001 213.571Z" fill="url(#paint7_linear_833_3797)"/>
<path d="M127.999 286.403C112.856 286.403 100.236 274.143 100.236 258.639C100.236 243.136 112.495 230.877 127.999 230.877C143.143 230.877 155.762 243.136 155.762 258.639C155.762 274.143 143.143 286.403 127.999 286.403ZM127.999 252.871C124.754 252.871 121.869 255.394 121.869 259C121.869 262.606 124.393 265.129 127.999 265.129C131.604 265.129 134.128 262.606 134.128 259C134.128 255.394 131.244 252.871 127.999 252.871Z" fill="url(#paint8_linear_833_3797)"/>
</g>
<g opacity="0.25">
<path d="M165.999 353.333C131.716 353.333 103.666 325.283 103.666 291C103.666 256.717 131.716 228.667 165.999 228.667C200.283 228.667 228.333 256.717 228.333 291C228.333 325.283 200.283 353.333 165.999 353.333ZM165.999 241.133C138.573 241.133 116.133 263.573 116.133 291C116.133 318.427 138.573 340.867 165.999 340.867C193.426 340.867 215.866 318.427 215.866 291C215.866 263.573 193.426 241.133 165.999 241.133Z" fill="url(#paint9_linear_833_3797)"/>
<path d="M166 329.647C144.599 329.647 127.354 312.194 127.354 291C127.354 269.807 144.599 252.354 166 252.354C187.402 252.354 204.647 269.807 204.647 291C204.647 312.194 187.402 329.647 166 329.647ZM166 264.82C151.456 264.82 139.82 276.664 139.82 291C139.82 305.337 151.456 317.18 166 317.18C180.545 317.18 192.18 305.545 192.18 291C192.18 276.456 180.545 264.82 166 264.82Z" fill="url(#paint10_linear_833_3797)"/>
<path d="M165.999 306.791C157.272 306.791 150 299.727 150 290.792C150 281.858 157.064 274.793 165.999 274.793C174.726 274.793 181.998 281.858 181.998 290.792C181.998 299.727 174.726 306.791 165.999 306.791ZM165.999 287.468C164.129 287.468 162.466 288.922 162.466 291C162.466 293.078 163.921 294.532 165.999 294.532C168.076 294.532 169.531 293.078 169.531 291C169.531 288.922 167.869 287.468 165.999 287.468Z" fill="url(#paint11_linear_833_3797)"/>
</g>
<g opacity="0.25">
<path d="M313.999 353.333C279.716 353.333 251.666 325.283 251.666 291C251.666 256.717 279.716 228.667 313.999 228.667C348.283 228.667 376.333 256.717 376.333 291C376.333 325.283 348.283 353.333 313.999 353.333ZM313.999 241.133C286.573 241.133 264.133 263.573 264.133 291C264.133 318.427 286.573 340.867 313.999 340.867C341.426 340.867 363.866 318.427 363.866 291C363.866 263.573 341.426 241.133 313.999 241.133Z" fill="url(#paint12_linear_833_3797)"/>
<path d="M314 329.647C292.599 329.647 275.354 312.194 275.354 291C275.354 269.807 292.599 252.354 314 252.354C335.402 252.354 352.647 269.807 352.647 291C352.647 312.194 335.402 329.647 314 329.647ZM314 264.82C299.456 264.82 287.82 276.664 287.82 291C287.82 305.337 299.456 317.18 314 317.18C328.545 317.18 340.18 305.545 340.18 291C340.18 276.456 328.545 264.82 314 264.82Z" fill="url(#paint13_linear_833_3797)"/>
<path d="M313.999 306.791C305.272 306.791 298 299.727 298 290.792C298 281.858 305.064 274.793 313.999 274.793C322.726 274.793 329.998 281.858 329.998 290.792C329.998 299.727 322.726 306.791 313.999 306.791ZM313.999 287.468C312.129 287.468 310.466 288.922 310.466 291C310.466 293.078 311.921 294.532 313.999 294.532C316.076 294.532 317.531 293.078 317.531 291C317.531 288.922 315.869 287.468 313.999 287.468Z" fill="url(#paint14_linear_833_3797)"/>
</g>
<g opacity="0.4">
<path d="M352.001 367.167C292.509 367.167 243.834 318.492 243.834 259C243.834 199.508 292.509 150.833 352.001 150.833C411.492 150.833 460.167 199.508 460.167 259C460.167 318.492 411.492 367.167 352.001 367.167ZM352.001 172.467C304.407 172.467 265.467 211.407 265.467 259C265.467 306.593 304.407 345.533 352.001 345.533C399.594 345.533 438.534 306.593 438.534 259C438.534 211.407 399.594 172.467 352.001 172.467Z" fill="url(#paint15_linear_833_3797)"/>
<path d="M352.001 326.064C314.864 326.064 284.938 295.778 284.938 259.001C284.938 222.224 314.864 191.937 352.001 191.937C389.138 191.937 419.064 222.224 419.064 259.001C419.064 295.778 389.138 326.064 352.001 326.064ZM352.001 213.571C326.762 213.571 306.571 234.122 306.571 259.001C306.571 283.879 326.762 304.431 352.001 304.431C377.24 304.431 397.431 284.239 397.431 259.001C397.431 233.762 377.24 213.571 352.001 213.571Z" fill="url(#paint16_linear_833_3797)"/>
<path d="M351.999 286.403C336.856 286.403 324.236 274.143 324.236 258.639C324.236 243.136 336.495 230.877 351.999 230.877C367.143 230.877 379.762 243.136 379.762 258.639C379.762 274.143 367.143 286.403 351.999 286.403ZM351.999 252.871C348.754 252.871 345.869 255.394 345.869 259C345.869 262.606 348.393 265.129 351.999 265.129C355.604 265.129 358.128 262.606 358.128 259C358.128 255.394 355.244 252.871 351.999 252.871Z" fill="url(#paint17_linear_833_3797)"/>
</g>
<g opacity="0.2">
<path d="M283.001 410.417C261.321 410.417 243.584 392.679 243.584 371C243.584 349.321 261.321 331.583 283.001 331.583C304.68 331.583 322.417 349.321 322.417 371C322.417 392.679 304.68 410.417 283.001 410.417ZM283.001 339.467C265.657 339.467 251.467 353.657 251.467 371C251.467 388.343 265.657 402.533 283.001 402.533C300.344 402.533 314.534 388.343 314.534 371C314.534 353.657 300.344 339.467 283.001 339.467Z" fill="url(#paint18_linear_833_3797)"/>
<path d="M283.001 395.439C269.468 395.439 258.562 384.402 258.562 371C258.562 357.598 269.468 346.562 283.001 346.562C296.534 346.562 307.439 357.598 307.439 371C307.439 384.402 296.534 395.439 283.001 395.439ZM283.001 354.445C273.804 354.445 266.446 361.934 266.446 371C266.446 380.066 273.804 387.555 283.001 387.555C292.198 387.555 299.556 380.197 299.556 371C299.556 361.803 292.198 354.445 283.001 354.445Z" fill="url(#paint19_linear_833_3797)"/>
<path d="M283 380.986C277.482 380.986 272.883 376.518 272.883 370.868C272.883 365.219 277.35 360.752 283 360.752C288.518 360.752 293.117 365.219 293.117 370.868C293.117 376.518 288.518 380.986 283 380.986ZM283 368.767C281.817 368.767 280.766 369.686 280.766 371C280.766 372.314 281.686 373.233 283 373.233C284.314 373.233 285.233 372.314 285.233 371C285.233 369.686 284.182 368.767 283 368.767Z" fill="url(#paint20_linear_833_3797)"/>
</g>
<g opacity="0.2">
<path d="M197.001 410.417C175.321 410.417 157.584 392.679 157.584 371C157.584 349.321 175.321 331.583 197.001 331.583C218.68 331.583 236.417 349.321 236.417 371C236.417 392.679 218.68 410.417 197.001 410.417ZM197.001 339.467C179.657 339.467 165.467 353.657 165.467 371C165.467 388.343 179.657 402.533 197.001 402.533C214.344 402.533 228.534 388.343 228.534 371C228.534 353.657 214.344 339.467 197.001 339.467Z" fill="url(#paint21_linear_833_3797)"/>
<path d="M197.001 395.439C183.468 395.439 172.562 384.402 172.562 371C172.562 357.598 183.468 346.562 197.001 346.562C210.534 346.562 221.439 357.598 221.439 371C221.439 384.402 210.534 395.439 197.001 395.439ZM197.001 354.445C187.804 354.445 180.446 361.934 180.446 371C180.446 380.066 187.804 387.555 197.001 387.555C206.198 387.555 213.556 380.197 213.556 371C213.556 361.803 206.198 354.445 197.001 354.445Z" fill="url(#paint22_linear_833_3797)"/>
<path d="M197 380.986C191.482 380.986 186.883 376.518 186.883 370.868C186.883 365.219 191.35 360.752 197 360.752C202.518 360.752 207.117 365.219 207.117 370.868C207.117 376.518 202.518 380.986 197 380.986ZM197 368.767C195.817 368.767 194.766 369.686 194.766 371C194.766 372.314 195.686 373.233 197 373.233C198.314 373.233 199.233 372.314 199.233 371C199.233 369.686 198.182 368.767 197 368.767Z" fill="url(#paint23_linear_833_3797)"/>
</g>
<path d="M201.676 352.285V291.983C201.676 290.511 201.09 289.098 200.047 288.057C199.004 287.016 197.59 286.431 196.115 286.431H185.298C184.272 286.408 183.272 286.113 182.399 285.575C181.526 285.037 180.813 284.277 180.332 283.372C178.595 280.298 175.887 277.886 172.631 276.512C169.375 275.137 165.755 274.878 162.336 275.775C158.917 276.672 155.892 278.674 153.733 281.468C151.575 284.263 150.404 287.693 150.404 291.222C150.404 294.751 151.575 298.181 153.733 300.976C155.892 303.77 158.917 305.772 162.336 306.669C165.755 307.566 169.375 307.307 172.631 305.932C175.887 304.558 178.595 302.145 180.332 299.072C180.812 298.165 181.526 297.403 182.399 296.863C183.273 296.324 184.275 296.027 185.302 296.003H186.527C187.999 296.012 189.408 296.604 190.445 297.648C191.481 298.692 192.06 300.104 192.055 301.574V352.285C192.031 353.308 191.735 354.306 191.196 355.177C190.657 356.047 189.896 356.759 188.991 357.238C185.912 358.973 183.496 361.676 182.119 364.927C180.743 368.177 180.483 371.792 181.381 375.205C182.28 378.618 184.285 381.639 187.084 383.794C189.883 385.949 193.319 387.118 196.853 387.118C200.388 387.118 203.824 385.949 206.623 383.794C209.422 381.639 211.427 378.618 212.325 375.205C213.224 371.792 212.964 368.177 211.587 364.927C210.211 361.676 207.795 358.973 204.716 357.238C203.808 356.759 203.045 356.046 202.504 355.174C201.964 354.301 201.667 353.301 201.643 352.276L201.676 352.285ZM166.465 297.611C165.2 297.611 163.962 297.237 162.91 296.535C161.857 295.832 161.037 294.835 160.553 293.667C160.068 292.5 159.942 291.215 160.188 289.975C160.435 288.736 161.045 287.598 161.94 286.704C162.835 285.81 163.975 285.202 165.217 284.955C166.458 284.709 167.745 284.835 168.914 285.319C170.084 285.802 171.083 286.621 171.786 287.672C172.49 288.723 172.865 289.958 172.865 291.222C172.864 292.916 172.189 294.541 170.989 295.739C169.789 296.937 168.162 297.61 166.465 297.611ZM196.853 377.453C195.588 377.453 194.35 377.078 193.298 376.376C192.245 375.674 191.425 374.676 190.941 373.509C190.456 372.341 190.33 371.056 190.577 369.817C190.824 368.578 191.433 367.439 192.328 366.546C193.223 365.652 194.363 365.043 195.605 364.797C196.846 364.55 198.133 364.677 199.303 365.16C200.472 365.644 201.471 366.463 202.175 367.514C202.878 368.564 203.253 369.8 203.253 371.064C203.252 372.758 202.577 374.382 201.377 375.58C200.177 376.778 198.55 377.452 196.853 377.453ZM128.086 243.318C125.269 243.301 122.498 244.027 120.053 245.422C117.607 246.818 115.575 248.834 114.161 251.266C112.747 253.698 112.001 256.46 112 259.272C111.999 262.084 112.742 264.847 114.154 267.28C115.566 269.714 117.596 271.731 120.04 273.129C122.484 274.527 125.255 275.256 128.072 275.241C130.888 275.226 133.651 274.468 136.08 273.045C138.51 271.621 140.519 269.582 141.905 267.134C142.385 266.229 143.099 265.467 143.973 264.93C144.847 264.392 145.849 264.097 146.875 264.075H215.286C216.76 264.075 218.175 264.66 219.218 265.701C220.261 266.743 220.847 268.155 220.847 269.627V426.951C223.392 426.951 225.833 425.941 227.633 424.144C229.433 422.347 230.444 419.91 230.444 417.369V260.046C230.446 259.315 230.303 258.59 230.024 257.915C229.745 257.239 229.336 256.625 228.819 256.107C228.302 255.59 227.687 255.179 227.011 254.899C226.335 254.619 225.61 254.474 224.878 254.474H146.875C145.848 254.453 144.845 254.157 143.97 253.619C143.095 253.08 142.381 252.318 141.9 251.411C140.521 248.961 138.515 246.921 136.087 245.5C133.659 244.079 130.896 243.327 128.081 243.323L128.086 243.318ZM128.081 265.683C126.816 265.682 125.579 265.307 124.528 264.605C123.476 263.903 122.657 262.905 122.173 261.738C121.689 260.571 121.562 259.287 121.809 258.048C122.056 256.809 122.664 255.671 123.559 254.778C124.453 253.884 125.592 253.275 126.833 253.028C128.074 252.781 129.36 252.906 130.529 253.389C131.699 253.871 132.699 254.688 133.403 255.738C134.107 256.787 134.484 258.021 134.486 259.284C134.483 260.977 133.809 262.6 132.61 263.798C131.411 264.995 129.786 265.67 128.091 265.674L128.081 265.683ZM316.733 275.55C313.441 274.898 310.027 275.303 306.98 276.709C303.933 278.114 301.41 280.446 299.774 283.372C299.293 284.277 298.578 285.038 297.705 285.575C296.831 286.113 295.83 286.408 294.804 286.431H283.986C282.512 286.432 281.098 287.018 280.056 288.059C279.013 289.1 278.427 290.511 278.425 291.983V352.285C278.401 353.308 278.104 354.306 277.566 355.176C277.027 356.047 276.267 356.758 275.361 357.238C272.284 358.973 269.869 361.676 268.494 364.925C267.118 368.175 266.859 371.788 267.757 375.2C268.655 378.612 270.66 381.631 273.458 383.785C276.256 385.939 279.69 387.108 283.224 387.108C286.758 387.108 290.192 385.939 292.99 383.785C295.788 381.631 297.793 378.612 298.691 375.2C299.589 371.788 299.33 368.175 297.954 364.925C296.579 361.676 294.164 358.973 291.087 357.238C290.178 356.759 289.414 356.047 288.874 355.174C288.333 354.302 288.036 353.301 288.013 352.276V301.574C288.013 300.845 288.157 300.123 288.436 299.45C288.716 298.776 289.126 298.164 289.642 297.648C290.158 297.133 290.771 296.724 291.446 296.445C292.121 296.166 292.844 296.022 293.574 296.022H294.794C295.822 296.046 296.824 296.343 297.699 296.882C298.573 297.422 299.288 298.184 299.769 299.091C301.094 301.41 302.981 303.36 305.257 304.761C307.532 306.163 310.125 306.971 312.795 307.112C315.465 307.252 318.128 306.721 320.539 305.567C322.95 304.413 325.032 302.672 326.594 300.505C328.156 298.338 329.148 295.814 329.478 293.165C329.808 290.515 329.467 287.826 328.485 285.343C327.503 282.86 325.911 280.662 323.857 278.953C321.803 277.244 319.352 276.077 316.729 275.56L316.733 275.55ZM283.224 377.448C281.958 377.449 280.72 377.075 279.667 376.374C278.614 375.672 277.793 374.675 277.308 373.507C276.823 372.34 276.695 371.055 276.942 369.815C277.188 368.575 277.797 367.437 278.692 366.542C279.587 365.648 280.727 365.039 281.969 364.792C283.211 364.546 284.498 364.672 285.667 365.155C286.837 365.639 287.837 366.458 288.54 367.508C289.244 368.559 289.619 369.795 289.619 371.059C289.617 372.752 288.942 374.375 287.743 375.572C286.545 376.77 284.92 377.444 283.224 377.448ZM313.612 297.611C312.346 297.612 311.108 297.238 310.055 296.537C309.002 295.835 308.181 294.838 307.696 293.67C307.211 292.503 307.084 291.218 307.33 289.978C307.576 288.739 308.186 287.6 309.08 286.706C309.975 285.812 311.116 285.203 312.357 284.956C313.599 284.709 314.886 284.835 316.055 285.318C317.225 285.802 318.225 286.621 318.928 287.672C319.632 288.723 320.007 289.958 320.007 291.222C320.006 292.915 319.332 294.539 318.133 295.737C316.934 296.935 315.308 297.609 313.612 297.611ZM355.118 243.618C351.825 242.963 348.41 243.367 345.362 244.771C342.314 246.176 339.79 248.508 338.153 251.434C337.673 252.335 336.96 253.092 336.089 253.627C335.218 254.161 334.22 254.454 333.197 254.474H255.199C253.725 254.476 252.311 255.061 251.269 256.102C250.226 257.143 249.64 258.554 249.638 260.027V417.369C249.638 419.91 250.65 422.347 252.449 424.144C254.249 425.941 256.69 426.951 259.236 426.951V269.632C259.236 268.16 259.822 266.747 260.864 265.706C261.907 264.665 263.322 264.08 264.797 264.08H333.197C334.225 264.103 335.227 264.4 336.1 264.94C336.974 265.479 337.688 266.242 338.168 267.149C339.492 269.468 341.379 271.419 343.656 272.821C345.932 274.223 348.525 275.031 351.196 275.172C353.866 275.312 356.53 274.781 358.941 273.626C361.353 272.471 363.435 270.729 364.997 268.561C366.558 266.393 367.549 263.869 367.878 261.219C368.208 258.569 367.865 255.879 366.882 253.395C365.898 250.912 364.306 248.715 362.25 247.007C360.195 245.299 357.742 244.133 355.118 243.618ZM351.996 265.674C350.731 265.674 349.493 265.299 348.441 264.597C347.389 263.895 346.568 262.897 346.084 261.729C345.599 260.562 345.473 259.277 345.72 258.038C345.967 256.798 346.576 255.66 347.471 254.766C348.366 253.873 349.507 253.264 350.748 253.018C351.989 252.771 353.276 252.898 354.446 253.381C355.615 253.865 356.614 254.684 357.318 255.735C358.021 256.785 358.396 258.021 358.396 259.284C358.395 260.979 357.72 262.603 356.52 263.801C355.32 264.999 353.693 265.673 351.996 265.674ZM194.023 236.686C196.763 237.178 199.585 236.945 202.207 236.009C204.829 235.074 207.16 233.468 208.967 231.353C209.964 230.133 211.215 229.144 212.632 228.454C214.05 227.764 215.601 227.389 217.177 227.356H266.098C267.675 227.39 269.226 227.765 270.643 228.456C272.061 229.147 273.311 230.137 274.308 231.357C276.512 233.915 279.471 235.709 282.759 236.482C286.048 237.255 289.498 236.967 292.613 235.66C295.728 234.352 298.347 232.093 300.095 229.206C301.843 226.319 302.629 222.953 302.34 219.592C302.052 216.231 300.704 213.048 298.489 210.5C296.275 207.952 293.309 206.17 290.016 205.411C286.724 204.652 283.276 204.954 280.167 206.275C277.057 207.595 274.447 209.866 272.712 212.76C271.79 214.29 270.486 215.556 268.929 216.435C267.372 217.313 265.613 217.775 263.825 217.775H219.46C217.671 217.776 215.912 217.315 214.355 216.436C212.797 215.557 211.494 214.291 210.573 212.76C209.197 210.468 207.267 208.557 204.959 207.203C202.652 205.849 200.041 205.094 197.366 205.008C194.691 204.922 192.037 205.508 189.647 206.711C187.258 207.915 185.208 209.698 183.688 211.897C182.167 214.096 181.223 216.64 180.943 219.298C180.662 221.955 181.054 224.641 182.083 227.108C183.111 229.575 184.743 231.745 186.829 233.419C188.915 235.093 191.389 236.218 194.023 236.691V236.686ZM286.422 214.582C287.687 214.581 288.925 214.955 289.978 215.657C291.031 216.358 291.852 217.356 292.338 218.523C292.823 219.691 292.95 220.975 292.704 222.215C292.457 223.455 291.848 224.594 290.953 225.488C290.058 226.382 288.918 226.991 287.677 227.238C286.435 227.485 285.148 227.359 283.978 226.875C282.809 226.392 281.809 225.573 281.105 224.522C280.402 223.471 280.027 222.236 280.027 220.972C280.028 219.278 280.702 217.655 281.901 216.457C283.1 215.259 284.725 214.585 286.422 214.582ZM196.834 214.582C198.1 214.581 199.338 214.955 200.391 215.657C201.444 216.358 202.265 217.356 202.75 218.523C203.235 219.691 203.363 220.975 203.117 222.215C202.87 223.455 202.261 224.594 201.366 225.488C200.471 226.382 199.331 226.991 198.089 227.238C196.848 227.485 195.561 227.359 194.391 226.875C193.221 226.392 192.222 225.573 191.518 224.522C190.815 223.471 190.439 222.236 190.439 220.972C190.441 219.278 191.115 217.655 192.314 216.457C193.512 215.259 195.138 214.585 196.834 214.582Z" fill="url(#paint24_linear_833_3797)"/>
<defs>
<linearGradient id="paint0_linear_833_3797" x1="287" y1="37.8584" x2="287" y2="415.312" gradientUnits="userSpaceOnUse">
<stop stop-color="#504FF2"/>
<stop offset="1" stop-color="#F24AAC" stop-opacity="0"/>
</linearGradient>
<linearGradient id="paint1_linear_833_3797" x1="287" y1="107.453" x2="287" y2="341.475" gradientUnits="userSpaceOnUse">
<stop stop-color="#504FF2"/>
<stop offset="1" stop-color="#F24AAC" stop-opacity="0"/>
</linearGradient>
<linearGradient id="paint2_linear_833_3797" x1="286.999" y1="173.48" x2="286.999" y2="270.361" gradientUnits="userSpaceOnUse">
<stop stop-color="#504FF2"/>
<stop offset="1" stop-color="#F24AAC" stop-opacity="0"/>
</linearGradient>
<linearGradient id="paint3_linear_833_3797" x1="196" y1="37.8584" x2="196" y2="415.312" gradientUnits="userSpaceOnUse">
<stop stop-color="#504FF2"/>
<stop offset="1" stop-color="#F24AAC" stop-opacity="0"/>
</linearGradient>
<linearGradient id="paint4_linear_833_3797" x1="196" y1="107.453" x2="196" y2="341.475" gradientUnits="userSpaceOnUse">
<stop stop-color="#504FF2"/>
<stop offset="1" stop-color="#F24AAC" stop-opacity="0"/>
</linearGradient>
<linearGradient id="paint5_linear_833_3797" x1="195.999" y1="173.48" x2="195.999" y2="270.361" gradientUnits="userSpaceOnUse">
<stop stop-color="#504FF2"/>
<stop offset="1" stop-color="#F24AAC" stop-opacity="0"/>
</linearGradient>
<linearGradient id="paint6_linear_833_3797" x1="128.001" y1="130.365" x2="128.001" y2="395.481" gradientUnits="userSpaceOnUse">
<stop stop-color="#504FF2"/>
<stop offset="1" stop-color="#F24AAC" stop-opacity="0"/>
</linearGradient>
<linearGradient id="paint7_linear_833_3797" x1="128.001" y1="179.247" x2="128.001" y2="343.619" gradientUnits="userSpaceOnUse">
<stop stop-color="#504FF2"/>
<stop offset="1" stop-color="#F24AAC" stop-opacity="0"/>
</linearGradient>
<linearGradient id="paint8_linear_833_3797" x1="127.999" y1="225.623" x2="127.999" y2="293.67" gradientUnits="userSpaceOnUse">
<stop stop-color="#504FF2"/>
<stop offset="1" stop-color="#F24AAC" stop-opacity="0"/>
</linearGradient>
<linearGradient id="paint9_linear_833_3797" x1="165.999" y1="216.871" x2="165.999" y2="369.65" gradientUnits="userSpaceOnUse">
<stop stop-color="#504FF2"/>
<stop offset="1" stop-color="#F24AAC" stop-opacity="0"/>
</linearGradient>
<linearGradient id="paint10_linear_833_3797" x1="166" y1="245.04" x2="166" y2="339.763" gradientUnits="userSpaceOnUse">
<stop stop-color="#504FF2"/>
<stop offset="1" stop-color="#F24AAC" stop-opacity="0"/>
</linearGradient>
<linearGradient id="paint11_linear_833_3797" x1="165.999" y1="271.766" x2="165.999" y2="310.979" gradientUnits="userSpaceOnUse">
<stop stop-color="#504FF2"/>
<stop offset="1" stop-color="#F24AAC" stop-opacity="0"/>
</linearGradient>
<linearGradient id="paint12_linear_833_3797" x1="313.999" y1="216.871" x2="313.999" y2="369.65" gradientUnits="userSpaceOnUse">
<stop stop-color="#504FF2"/>
<stop offset="1" stop-color="#F24AAC" stop-opacity="0"/>
</linearGradient>
<linearGradient id="paint13_linear_833_3797" x1="314" y1="245.04" x2="314" y2="339.763" gradientUnits="userSpaceOnUse">
<stop stop-color="#504FF2"/>
<stop offset="1" stop-color="#F24AAC" stop-opacity="0"/>
</linearGradient>
<linearGradient id="paint14_linear_833_3797" x1="313.999" y1="271.766" x2="313.999" y2="310.979" gradientUnits="userSpaceOnUse">
<stop stop-color="#504FF2"/>
<stop offset="1" stop-color="#F24AAC" stop-opacity="0"/>
</linearGradient>
<linearGradient id="paint15_linear_833_3797" x1="352.001" y1="130.365" x2="352.001" y2="395.481" gradientUnits="userSpaceOnUse">
<stop stop-color="#504FF2"/>
<stop offset="1" stop-color="#F24AAC" stop-opacity="0"/>
</linearGradient>
<linearGradient id="paint16_linear_833_3797" x1="352.001" y1="179.247" x2="352.001" y2="343.619" gradientUnits="userSpaceOnUse">
<stop stop-color="#504FF2"/>
<stop offset="1" stop-color="#F24AAC" stop-opacity="0"/>
</linearGradient>
<linearGradient id="paint17_linear_833_3797" x1="351.999" y1="225.623" x2="351.999" y2="293.67" gradientUnits="userSpaceOnUse">
<stop stop-color="#504FF2"/>
<stop offset="1" stop-color="#F24AAC" stop-opacity="0"/>
</linearGradient>
<linearGradient id="paint18_linear_833_3797" x1="283.001" y1="324.124" x2="283.001" y2="420.734" gradientUnits="userSpaceOnUse">
<stop stop-color="#504FF2"/>
<stop offset="1" stop-color="#F24AAC" stop-opacity="0"/>
</linearGradient>
<linearGradient id="paint19_linear_833_3797" x1="283.001" y1="341.937" x2="283.001" y2="401.836" gradientUnits="userSpaceOnUse">
<stop stop-color="#504FF2"/>
<stop offset="1" stop-color="#F24AAC" stop-opacity="0"/>
</linearGradient>
<linearGradient id="paint20_linear_833_3797" x1="283" y1="358.837" x2="283" y2="383.634" gradientUnits="userSpaceOnUse">
<stop stop-color="#504FF2"/>
<stop offset="1" stop-color="#F24AAC" stop-opacity="0"/>
</linearGradient>
<linearGradient id="paint21_linear_833_3797" x1="197.001" y1="324.124" x2="197.001" y2="420.734" gradientUnits="userSpaceOnUse">
<stop stop-color="#504FF2"/>
<stop offset="1" stop-color="#F24AAC" stop-opacity="0"/>
</linearGradient>
<linearGradient id="paint22_linear_833_3797" x1="197.001" y1="341.937" x2="197.001" y2="401.836" gradientUnits="userSpaceOnUse">
<stop stop-color="#504FF2"/>
<stop offset="1" stop-color="#F24AAC" stop-opacity="0"/>
</linearGradient>
<linearGradient id="paint23_linear_833_3797" x1="197" y1="358.837" x2="197" y2="383.634" gradientUnits="userSpaceOnUse">
<stop stop-color="#504FF2"/>
<stop offset="1" stop-color="#F24AAC" stop-opacity="0"/>
</linearGradient>
<linearGradient id="paint24_linear_833_3797" x1="240" y1="184" x2="240" y2="456" gradientUnits="userSpaceOnUse">
<stop stop-color="#504FF2"/>
<stop offset="1" stop-color="#F24AAC" stop-opacity="0.28"/>
</linearGradient>
</defs>
</svg>
