<svg width="200" height="68" viewBox="0 0 200 68" fill="none" xmlns="http://www.w3.org/2000/svg">
<rect width="200" height="67.2131" fill="none"/>
<path d="M28.0668 40.1265V30.3025C28.0668 30.0626 27.9714 29.8326 27.8014 29.6629C27.6315 29.4933 27.401 29.398 27.1606 29.398H25.3979C25.2308 29.3943 25.0677 29.3461 24.9255 29.2585C24.7833 29.1709 24.667 29.047 24.5887 28.8996C24.3056 28.3989 23.8643 28.0059 23.3338 27.782C22.8032 27.5581 22.2133 27.5159 21.6562 27.662C21.099 27.8081 20.6061 28.1342 20.2543 28.5895C19.9025 29.0448 19.7117 29.6036 19.7117 30.1785C19.7117 30.7535 19.9025 31.3122 20.2543 31.7675C20.6061 32.2228 21.099 32.5489 21.6562 32.695C22.2133 32.8411 22.8032 32.7989 23.3338 32.575C23.8643 32.3511 24.3056 31.9581 24.5887 31.4574C24.6669 31.3096 24.7832 31.1854 24.9256 31.0975C25.068 31.0096 25.2313 30.9613 25.3987 30.9574H25.5982C25.8382 30.9589 26.0678 31.0552 26.2366 31.2254C26.4055 31.3955 26.4999 31.6256 26.499 31.8651V40.1265C26.4951 40.2932 26.4468 40.4558 26.3591 40.5976C26.2713 40.7394 26.1473 40.8553 25.9997 40.9334C25.4981 41.216 25.1043 41.6564 24.88 42.186C24.6556 42.7156 24.6134 43.3044 24.7597 43.8604C24.9061 44.4165 25.2329 44.9085 25.689 45.2597C26.1451 45.6108 26.705 45.8012 27.281 45.8012C27.857 45.8012 28.4168 45.6108 28.873 45.2597C29.3291 44.9085 29.6559 44.4165 29.8023 43.8604C29.9486 43.3044 29.9063 42.7156 29.682 42.186C29.4577 41.6564 29.0639 41.216 28.5623 40.9334C28.4143 40.8553 28.2899 40.7392 28.2018 40.5971C28.1138 40.455 28.0653 40.292 28.0614 40.125L28.0668 40.1265ZM22.329 31.2194C22.1228 31.2194 21.9211 31.1584 21.7496 31.044C21.5781 30.9296 21.4445 30.767 21.3655 30.5768C21.2866 30.3866 21.2659 30.1774 21.3062 29.9754C21.3464 29.7735 21.4458 29.588 21.5916 29.4425C21.7375 29.2969 21.9233 29.1978 22.1256 29.1576C22.3279 29.1174 22.5376 29.138 22.7281 29.2168C22.9187 29.2956 23.0816 29.429 23.1962 29.6002C23.3108 29.7714 23.3719 29.9726 23.3719 30.1785C23.3717 30.4545 23.2618 30.7192 23.0662 30.9143C22.8707 31.1095 22.6056 31.2192 22.329 31.2194ZM27.281 44.2267C27.0747 44.2267 26.8731 44.1656 26.7016 44.0512C26.5301 43.9368 26.3964 43.7743 26.3175 43.5841C26.2386 43.3939 26.2179 43.1846 26.2581 42.9827C26.2984 42.7807 26.3977 42.5953 26.5436 42.4497C26.6894 42.3041 26.8752 42.205 27.0775 42.1648C27.2798 42.1247 27.4895 42.1453 27.6801 42.224C27.8707 42.3028 28.0335 42.4363 28.1481 42.6074C28.2627 42.7786 28.3239 42.9799 28.3239 43.1857C28.3237 43.4617 28.2137 43.7264 28.0182 43.9215C27.8227 44.1167 27.5575 44.2264 27.281 44.2267ZM16.0748 22.3743C15.6158 22.3715 15.1642 22.4898 14.7658 22.7172C14.3673 22.9445 14.0361 23.273 13.8056 23.6692C13.5752 24.0654 13.4537 24.5154 13.4535 24.9735C13.4533 25.4316 13.5744 25.8817 13.8045 26.2781C14.0346 26.6745 14.3655 27.0032 14.7638 27.231C15.1621 27.4587 15.6136 27.5774 16.0725 27.575C16.5315 27.5725 16.9818 27.4491 17.3776 27.2172C17.7735 26.9853 18.1009 26.6531 18.3268 26.2543C18.4051 26.1068 18.5214 25.9828 18.6638 25.8951C18.8062 25.8075 18.9695 25.7595 19.1367 25.756H30.2846C30.525 25.756 30.7555 25.8513 30.9254 26.0209C31.0954 26.1905 31.1908 26.4206 31.1908 26.6605V52.2905C31.6056 52.2905 32.0034 52.126 32.2967 51.8333C32.59 51.5405 32.7548 51.1435 32.7548 50.7295V25.0995C32.7551 24.9804 32.7319 24.8624 32.6864 24.7523C32.641 24.6422 32.5742 24.5421 32.49 24.4578C32.4057 24.3735 32.3056 24.3066 32.1954 24.261C32.0852 24.2154 31.9671 24.1919 31.8478 24.1919H19.1367C18.9693 24.1883 18.8058 24.1402 18.6633 24.0524C18.5207 23.9647 18.4043 23.8405 18.326 23.6927C18.1013 23.2936 17.7743 22.9613 17.3786 22.7298C16.9829 22.4983 16.5327 22.3759 16.0741 22.3751L16.0748 22.3743ZM16.0741 26.0179C15.8679 26.0178 15.6664 25.9566 15.495 25.8422C15.3237 25.7278 15.1901 25.5653 15.1113 25.3752C15.0324 25.185 15.0118 24.9759 15.052 24.774C15.0922 24.5722 15.1914 24.3868 15.3371 24.2412C15.4829 24.0957 15.6685 23.9965 15.8707 23.9562C16.0729 23.9159 16.2825 23.9364 16.473 24.015C16.6636 24.0935 16.8265 24.2267 16.9413 24.3977C17.056 24.5686 17.1174 24.7697 17.1177 24.9755C17.1173 25.2513 17.0074 25.5157 16.8121 25.7108C16.6168 25.9059 16.3519 26.0158 16.0756 26.0164L16.0741 26.0179ZM46.8163 27.6254C46.2798 27.5191 45.7234 27.5852 45.2269 27.8141C44.7304 28.043 44.3193 28.423 44.0526 28.8996C43.9742 29.0471 43.8578 29.171 43.7154 29.2586C43.5731 29.3462 43.4099 29.3943 43.2427 29.398H41.4799C41.2396 29.3982 41.0093 29.4936 40.8394 29.6632C40.6695 29.8327 40.5739 30.0627 40.5737 30.3025V40.1265C40.5697 40.2932 40.5214 40.4557 40.4337 40.5975C40.3459 40.7393 40.2219 40.8552 40.0744 40.9334C39.573 41.216 39.1794 41.6563 38.9552 42.1857C38.7311 42.7151 38.6889 43.3037 38.8352 43.8596C38.9816 44.4154 39.3083 44.9073 39.7643 45.2582C40.2202 45.6092 40.7798 45.7996 41.3557 45.7996C41.9315 45.7996 42.4911 45.6092 42.9471 45.2582C43.4031 44.9073 43.7298 44.4154 43.8761 43.8596C44.0225 43.3037 43.9803 42.7151 43.7561 42.1857C43.5319 41.6563 43.1384 41.216 42.637 40.9334C42.4889 40.8554 42.3644 40.7393 42.2763 40.5972C42.1883 40.4551 42.1398 40.292 42.1361 40.125V31.8651C42.1361 31.7463 42.1595 31.6287 42.2051 31.5189C42.2506 31.4092 42.3174 31.3095 42.4015 31.2255C42.4857 31.1415 42.5856 31.0749 42.6955 31.0294C42.8055 30.9839 42.9233 30.9606 43.0423 30.9606H43.2411C43.4086 30.9644 43.572 31.0128 43.7145 31.1006C43.857 31.1885 43.9734 31.3127 44.0518 31.4605C44.2677 31.8383 44.5751 32.1559 44.946 32.3842C45.3169 32.6126 45.7393 32.7442 46.1744 32.7672C46.6096 32.7901 47.0435 32.7036 47.4364 32.5155C47.8294 32.3274 48.1686 32.0439 48.4231 31.6908C48.6777 31.3378 48.8392 30.9266 48.8931 30.495C48.9469 30.0634 48.8912 29.6252 48.7312 29.2207C48.5712 28.8162 48.3119 28.4582 47.9772 28.1798C47.6424 27.9013 47.243 27.7112 46.8155 27.627L46.8163 27.6254ZM41.3557 44.2259C41.1494 44.226 40.9477 44.1651 40.7761 44.0508C40.6045 43.9365 40.4707 43.774 40.3916 43.5838C40.3126 43.3936 40.2918 43.1843 40.332 42.9824C40.3721 42.7804 40.4714 42.5948 40.6172 42.4492C40.763 42.3035 40.9488 42.2043 41.1512 42.1641C41.3535 42.1239 41.5632 42.1444 41.7538 42.2232C41.9444 42.302 42.1073 42.4354 42.222 42.6066C42.3366 42.7778 42.3978 42.979 42.3978 43.185C42.3974 43.4608 42.2875 43.7252 42.0922 43.9203C41.8968 44.1154 41.632 44.2253 41.3557 44.2259ZM46.3076 31.2194C46.1013 31.2196 45.8996 31.1587 45.728 31.0444C45.5564 30.9301 45.4226 30.7676 45.3436 30.5774C45.2645 30.3872 45.2438 30.1779 45.2839 29.9759C45.3241 29.7739 45.4233 29.5884 45.5691 29.4427C45.715 29.2971 45.9008 29.1979 46.1031 29.1576C46.3054 29.1174 46.5152 29.138 46.7058 29.2167C46.8964 29.2955 47.0593 29.4289 47.1739 29.6001C47.2886 29.7713 47.3497 29.9726 47.3497 30.1785C47.3495 30.4544 47.2397 30.7189 47.0443 30.914C46.849 31.1092 46.584 31.219 46.3076 31.2194ZM53.0712 22.4232C52.5347 22.3165 51.9782 22.3823 51.4815 22.6111C50.9848 22.8399 50.5735 23.2199 50.3068 23.6966C50.2285 23.8434 50.1124 23.9667 49.9704 24.0537C49.8284 24.1408 49.6658 24.1885 49.4992 24.1919H36.7889C36.5486 24.1921 36.3182 24.2874 36.1483 24.457C35.9784 24.6266 35.8829 24.8565 35.8827 25.0964V50.7295C35.8827 51.1435 36.0474 51.5405 36.3407 51.8333C36.634 52.126 37.0318 52.2905 37.4466 52.2905V26.6612C37.4466 26.4213 37.5421 26.1913 37.712 26.0217C37.882 25.852 38.1125 25.7567 38.3528 25.7567H49.4992C49.6666 25.7606 49.8299 25.8089 49.9722 25.8968C50.1146 25.9847 50.2309 26.1089 50.3091 26.2566C50.525 26.6346 50.8325 26.9523 51.2034 27.1807C51.5744 27.4091 51.9969 27.5408 52.4321 27.5637C52.8673 27.5866 53.3014 27.5 53.6943 27.3118C54.0873 27.1237 54.4266 26.84 54.6811 26.4868C54.9355 26.1336 55.097 25.7223 55.1507 25.2906C55.2044 24.8589 55.1485 24.4206 54.9883 24.0161C54.828 23.6115 54.5685 23.2537 54.2335 22.9753C53.8985 22.697 53.4989 22.5071 53.0712 22.4232ZM52.5626 26.0164C52.3564 26.0164 52.1547 25.9553 51.9832 25.841C51.8117 25.7266 51.678 25.564 51.5991 25.3738C51.5202 25.1836 51.4995 24.9743 51.5398 24.7724C51.58 24.5705 51.6793 24.385 51.8252 24.2394C51.971 24.0938 52.1569 23.9947 52.3592 23.9545C52.5615 23.9144 52.7711 23.935 52.9617 24.0138C53.1523 24.0926 53.3151 24.226 53.4297 24.3972C53.5443 24.5683 53.6055 24.7696 53.6055 24.9755C53.6053 25.2515 53.4954 25.5161 53.2998 25.7113C53.1043 25.9064 52.8391 26.0162 52.5626 26.0164ZM26.8197 21.2939C27.2663 21.3741 27.7262 21.3361 28.1535 21.1837C28.5807 21.0312 28.9605 20.7696 29.2549 20.425C29.4174 20.2263 29.6212 20.0652 29.8523 19.9528C30.0833 19.8404 30.336 19.7793 30.5929 19.774H38.5648C38.8218 19.7794 39.0746 19.8406 39.3056 19.9531C39.5366 20.0657 39.7403 20.2269 39.9028 20.4258C40.2619 20.8424 40.744 21.1347 41.28 21.2606C41.8159 21.3866 42.3781 21.3397 42.8857 21.1267C43.3932 20.9137 43.8201 20.5456 44.1049 20.0753C44.3897 19.605 44.5178 19.0566 44.4708 18.5091C44.4238 17.9615 44.2041 17.4429 43.8433 17.0278C43.4824 16.6127 42.999 16.3225 42.4625 16.1988C41.9261 16.0751 41.3641 16.1244 40.8574 16.3395C40.3508 16.5546 39.9255 16.9245 39.6426 17.396C39.4923 17.6453 39.28 17.8516 39.0262 17.9947C38.7724 18.1379 38.4859 18.213 38.1944 18.213H30.9649C30.6733 18.2132 30.3867 18.1381 30.1329 17.9949C29.8791 17.8518 29.6668 17.6454 29.5166 17.396C29.2924 17.0227 28.9779 16.7114 28.6019 16.4908C28.2259 16.2701 27.8005 16.1472 27.3645 16.1332C26.9286 16.1192 26.4961 16.2146 26.1067 16.4106C25.7173 16.6067 25.3834 16.8972 25.1355 17.2554C24.8877 17.6136 24.7339 18.0282 24.6882 18.4611C24.6425 18.8941 24.7064 19.3315 24.874 19.7335C25.0416 20.1354 25.3075 20.4889 25.6474 20.7617C25.9874 21.0344 26.3905 21.2177 26.8197 21.2947V21.2939ZM41.8767 17.6929C42.083 17.6927 42.2847 17.7537 42.4563 17.8679C42.6279 17.9822 42.7617 18.1447 42.8408 18.3349C42.9198 18.5251 42.9406 18.7344 42.9004 18.9364C42.8603 19.1384 42.761 19.3239 42.6152 19.4696C42.4694 19.6152 42.2836 19.7145 42.0812 19.7547C41.8789 19.7949 41.6692 19.7743 41.4786 19.6956C41.288 19.6168 41.1251 19.4834 41.0104 19.3122C40.8958 19.141 40.8346 18.9397 40.8346 18.7338C40.8348 18.4579 40.9447 18.1934 41.14 17.9983C41.3354 17.8031 41.6003 17.6933 41.8767 17.6929ZM27.2779 17.6929C27.4842 17.6927 27.6859 17.7537 27.8575 17.8679C28.0291 17.9822 28.1629 18.1447 28.2419 18.3349C28.321 18.5251 28.3418 18.7344 28.3016 18.9364C28.2615 19.1384 28.1622 19.3239 28.0164 19.4696C27.8706 19.6152 27.6847 19.7145 27.4824 19.7547C27.2801 19.7949 27.0704 19.7743 26.8797 19.6956C26.6891 19.6168 26.5262 19.4834 26.4116 19.3122C26.297 19.141 26.2358 18.9397 26.2358 18.7338C26.236 18.4579 26.3458 18.1934 26.5412 17.9983C26.7366 17.8031 27.0015 17.6933 27.2779 17.6929Z" fill="white"/>
<path d="M77.1174 28.7192H72.2027V26.8916H84.1171V28.7192H79.1333V43.3184H77.1143L77.1174 28.7192Z" fill="white"/>
<path d="M127.35 26.8916H129.369L135.628 43.3184H133.518L132.035 39.316H124.687L123.226 43.3184H121.117L127.35 26.8916ZM131.407 37.5573L128.37 29.3191H128.324L125.333 37.5558L131.407 37.5573Z" fill="white"/>
<path d="M147.147 35.1524C147.147 30.502 150.068 26.7305 155.33 26.7305C156.569 26.7358 157.791 27.0218 158.903 27.5669C160.015 28.112 160.988 28.902 161.75 29.8773L160.244 31.1267C159.674 30.3615 158.933 29.7395 158.08 29.3098C157.227 28.8801 156.285 28.6546 155.33 28.6511C151.598 28.6511 149.257 31.3809 149.257 35.1524C149.257 39.0859 151.876 41.5374 155.353 41.5374C156.309 41.5365 157.251 41.3121 158.105 40.8822C158.958 40.4523 159.699 39.8289 160.267 39.0618L161.774 40.3353C161.019 41.3148 160.046 42.105 158.931 42.6432C157.816 43.1814 156.591 43.4527 155.353 43.4356C150.903 43.4356 147.147 40.5197 147.147 35.1524Z" fill="white"/>
<path d="M177.096 36.0534V41.4874H185.65V43.3151H175.08V26.8921H185.162V28.7197H177.096V34.2227" fill="white"/>
<path d="M183.707 34.2104H179.136V36.0264H183.707V34.2104Z" fill="white"/>
<path d="M104.448 36.8635C107.043 36.331 108.55 34.7352 108.55 31.9806C108.55 29.0647 106.904 26.8899 103.103 26.8899H97.2615V28.7175H102.825C105.096 28.7175 106.463 29.8282 106.463 31.934C106.463 33.8314 105.282 35.2188 102.546 35.2188H97.2615V43.3183H99.2805V37.048H102.224L106.582 43.3175H108.989L104.448 36.8635Z" fill="white"/>
</svg>
